<svg width="22" height="22" viewBox="0 0 22 22" fill="none" xmlns="http://www.w3.org/2000/svg">
<path d="M16.5989 6.8751H14.4376C13.6771 6.8751 13.0626 7.48955 13.0626 8.2501C13.0626 9.01064 13.6771 9.6251 14.4376 9.6251H19.9376C20.6981 9.6251 21.3126 9.01064 21.3126 8.2501V2.7501C21.3126 1.98955 20.6981 1.3751 19.9376 1.3751C19.1771 1.3751 18.5626 1.98955 18.5626 2.7501V4.9501L17.8063 4.19385C14.0466 0.434082 7.95361 0.434082 4.19385 4.19385C0.434082 7.95361 0.434082 14.0466 4.19385 17.8063C7.95361 21.5661 14.0466 21.5661 17.8063 17.8063C18.3435 17.2692 18.3435 16.397 17.8063 15.8599C17.2692 15.3228 16.397 15.3228 15.8599 15.8599C13.1743 18.5454 8.82158 18.5454 6.13604 15.8599C3.45049 13.1743 3.45049 8.82158 6.13604 6.13604C8.82158 3.45049 13.1743 3.45049 15.8599 6.13604L16.5989 6.8751Z" fill="white"/>
</svg>
