<svg width="18" height="22" viewBox="0 0 18 22" fill="none" xmlns="http://www.w3.org/2000/svg">
<g clip-path="url(#clip0_1_355)">
<path d="M0.377676 10.0289C-0.124556 10.566 -0.124556 11.4382 0.377676 11.9753L6.80625 18.8503C7.30848 19.3875 8.12411 19.3875 8.62634 18.8503C9.12857 18.3132 9.12857 17.441 8.62634 16.9039L4.3875 12.375L16.7143 12.375C17.4254 12.375 18 11.7605 18 11C18 10.2394 17.4254 9.62495 16.7143 9.62495L4.39152 9.62495L8.62232 5.09605C9.12455 4.55894 9.12455 3.68667 8.62232 3.14956C8.12009 2.61245 7.30446 2.61245 6.80223 3.14956L0.373658 10.0246L0.377676 10.0289Z" fill="white"/>
</g>
<defs>
<clipPath id="clip0_1_355">
<rect width="18" height="22" fill="white" transform="translate(18 22) rotate(180)"/>
</clipPath>
</defs>
</svg>
