<svg width="14" height="22" viewBox="0 0 14 22" fill="none" xmlns="http://www.w3.org/2000/svg">
<path d="M4.2 4.125C3.42562 4.125 2.8 4.73945 2.8 5.5C2.8 6.26055 2.17437 6.875 1.4 6.875C0.625625 6.875 0 6.26055 0 5.5C0 3.22266 1.88125 1.375 4.2 1.375H8.44375C11.5106 1.375 14 3.81992 14 6.83203C14 9.08359 12.5912 11.1031 10.4562 11.9195L7.7 12.9723V13.75C7.7 14.5105 7.07437 15.125 6.3 15.125C5.52562 15.125 4.9 14.5105 4.9 13.75V12.9723C4.9 11.8379 5.60875 10.8195 6.685 10.4113L9.44125 9.35859C10.5 8.95039 11.2 7.94922 11.2 6.83203C11.2 5.33672 9.96625 4.125 8.44375 4.125H4.2ZM6.3 20.625C5.33312 20.625 4.55 19.8559 4.55 18.9062C4.55 17.9566 5.33312 17.1875 6.3 17.1875C7.26687 17.1875 8.05 17.9566 8.05 18.9062C8.05 19.8559 7.26687 20.625 6.3 20.625Z" fill="white"/>
</svg>
