<svg width="14" height="22" viewBox="0 0 14 22" fill="none" xmlns="http://www.w3.org/2000/svg">
<g clip-path="url(#clip0_1_399)">
<path d="M13.5889 6.34932C14.1357 5.81221 14.1357 4.93994 13.5889 4.40283C13.042 3.86572 12.1539 3.86572 11.607 4.40283L7.00011 8.93174L2.38886 4.40713C1.84198 3.87002 0.953857 3.87002 0.406982 4.40713C-0.139893 4.94424 -0.139893 5.8165 0.406982 6.35361L5.01823 10.8782L0.411357 15.4071C-0.135518 15.9442 -0.135518 16.8165 0.411357 17.3536C0.958232 17.8907 1.84636 17.8907 2.39323 17.3536L7.00011 12.8247L11.6114 17.3493C12.1582 17.8864 13.0464 17.8864 13.5932 17.3493C14.1401 16.8122 14.1401 15.9399 13.5932 15.4028L8.98198 10.8782L13.5889 6.34932Z" fill="#414141"/>
</g>
<defs>
<clipPath id="clip0_1_399">
<rect width="14" height="22" fill="white"/>
</clipPath>
</defs>
</svg>
